<?xml version="1.0" encoding="utf-8"?>
<!-- Generator: Adobe Illustrator 22.1.0, SVG Export Plug-In . SVG Version: 6.00 Build 0)  -->
<svg version="1.1" id="Layer_1" xmlns="http://www.w3.org/2000/svg" xmlns:xlink="http://www.w3.org/1999/xlink" x="0px" y="0px"
	 viewBox="0 0 58 26" style="enable-background:new 0 0 58 26;" xml:space="preserve">
<style type="text/css">
	.st0{fill:#00A657;}
	.st1{fill:#FDFEFE;}
	.st2{fill:none;}
	.st3{enable-background:new    ;}
</style>
<path class="st0" d="M17.9,20.4c0,0-0.7-1.5-1.6-3.1c-1-2.3-1.6-3.7-1.6-4.6C14.8,9.9,17,9,18.5,9c2,0,3.7,1.6,3.7,3.7
	c0,0.4,0,0.8-0.3,1.5c-1.6,3.3-3.4,7.2-3.4,7.2L17.9,20.4z M18.5,11.3c-0.7,0-1.4,0.6-1.4,1.4s0.6,1.4,1.4,1.4s1.4-0.6,1.4-1.4
	S19.2,11.3,18.5,11.3z"/>
<path class="st1" d="M25.3,7.1L25.3,7.1L25.3,7.1L25.3,7.1L25.3,7.1L25.3,7.1L25.3,7.1L25.3,7.1L25.3,7.1L25.3,7.1L25.3,7.1L25.1,7
	l0,0l0,0l0,0l0,0h-0.5l0,0l0,0l0,0V6.9l0,0V6.9c-0.2-1.2-0.6-2-1.2-2.6H23L23,4.3l0,0l0,0l0,0l0,0l0,0v0.1l0,0l0,0l-0.1,0.1
	c-0.1,0-0.2,0-0.3,0l0,0h-0.1l0,0h-0.1l0,0h-0.1l0,0h-0.1l0,0l0,0l0,0l0,0l0,0L22,4.8l0,0l0,0l0,0l0,0l0,0l-0.1,0.1l0,0l0,0l0,0l0,0
	h-0.3l0,0l0,0v0.1l0,0l0,0L21.6,5l0,0l0,0l0,0l0,0l0,0v0.1l0,0h-0.1v0.1l0,0l0,0l0,0h-0.3l0,0l0,0l0,0l0,0l0,0l0,0H21l0,0h-0.2
	l-0.1-0.1l0,0c-0.5-0.4-1.2-0.5-1.9-0.4h-0.1h-0.2h-0.1c-0.4,0.1-0.7,0.2-1.1,0.2C17.3,5,17.1,5,17,5.1l0,0l-0.1,0.1v0.1h-0.1
	l-0.5,0.5H16l0,0h-0.1h-0.1c-0.5,0-0.8-0.1-1.2-0.3c-0.1,0-0.1-0.1-0.1-0.2l-0.2-0.1h-0.2l0,0l0,0c-0.2-0.2-0.4-0.4-0.5-0.5
	c-0.2,0-0.4-0.1-0.5-0.1l-0.8,0.5L12,5.1c-0.1,0.1-0.2,0.2-0.3,0.3h-0.4l-0.3-0.1c-0.2-0.5-0.5-0.8-0.9-1h-0.1L9.9,4.4V4.3
	C9.6,4.3,9.3,4.1,9.1,4l0,0l0,0L8.8,3.9l0,0L8.4,4v0.1L8.3,4.2c-0.2,0-0.5,0-0.6,0L7.6,4.1L6.9,4.3L6.4,4.7H6.2
	C6.3,5.1,6.1,5.6,5.9,6L5.4,6.4c0,0.4,0,0.6,0,1l0,0L5.3,7.6v0.2h0.1v0.1C5.3,8,5.2,8,5.2,8c0,0.1,0,0.1-0.1,0.2l0,0v0.1L5,8.4
	L5.5,9l0,0l0,0c0,0.1,0,0.3,0.1,0.4v0.1l0,0l0,0l0,0l0,0l0,0l0,0v0.1h0.1l0,0v0.2l0,0v0.1l0,0c0,0.1,0,0.1,0,0.2H5.6l-0.2,0.3l0,0
	l-0.1,0.1v0.1l0,0l0,0l-0.1,0.2l0.1,0.2h0.1v0.1V11l0,0l0,0c0,0.1,0,0.1,0,0.2v0.1H5.3v0.1l-0.1,0.1l0,0H5.1L5,11.5l0,0
	c0,0.1,0,0.2,0,0.3l-0.1,0.1l0,0l0,0l0,0l0,0V12c-0.1,0.1-0.2,0.2-0.2,0.3v0.1l0,0v0.2c0,0,0,0.1-0.1,0.1v0.1c0,0.1-0.1,0.1-0.1,0.2
	L4.3,13l0,0H4l0,0H3.9H3.8l0,0v0.3l0,0l0,0l0,0l0,0l0,0v0.1l0,0l0,0v0.1v0.4l0,0l0,0l0,0l0,0v0.1l0,0V14v0.1v0.1v0.1l0,0l0,0v0.2
	l0,0c0,0.1,0,0.3,0,0.4v0.1c0,0.1,0,0.1,0,0.2l0,0l0,0c-0.1,0.2-0.1,0.3,0,0.5l0,0v0.1h0.1c0,0.1,0,0.1,0,0.2H3.8
	c0,0.2,0,0.4,0.1,0.5l-0.1,0.1c0,0,0,0.1,0.1,0.1l0,0l-0.1,0.1l0,0l0,0v0.1l0,0V17h0.1v0.1l0,0l0,0H3.8c0,0.1,0,0.1,0,0.2v0.1v0.2
	l0,0v0.2h0.1l0,0c0.1,0,0.3,0,0.4,0h0.1c0.2,0,0.5-0.1,0.7,0l0,0l0,0l0,0l0,0c0.5,0,1.1,0,1.6,0.1h0.1c0.1,0,0.2,0,0.3,0.1
	C7.1,18,7.1,18,7.2,18.1l0,0l0,0l0,0l0,0c0.1,0,0.1,0.1,0.2,0.2l0,0c0.2,0.2,0.4,0.5,0.5,0.6l0,0v-0.1h0.1l0,0l0,0l0,0l0,0l0,0l0,0
	c0,0.1,0.1,0.2,0.2,0.3l0,0l0,0l-0.1,0.1l0,0l0,0l0,0l0,0l0.1,0.2l0,0l0.1,0.1h0.2l0,0l0,0l0,0l0,0h0.1l0,0v-0.1v-0.1l0,0l0,0l0,0
	v0.1v0.1l0,0l0,0l0,0v0.1h0.1H8.6l0,0l0,0l0,0l0,0l0,0H8.4c0,0.1,0.1,0.3,0.1,0.4L8.6,20l0,0h0.1l0,0l0,0l0,0l0,0l0,0h0l0,0l0,0l0,0
	l0,0l0,0l0,0H8.6l0,0l0,0c0,0.1,0.1,0.1,0.1,0.2v0.1l0,0v0.1l0,0l0,0l0.1,0.1l0,0l-0.1-0.1c0,0.1,0.1,0.2,0.2,0.3l0,0
	c0,0.1,0.1,0.3,0.2,0.3l0,0l0,0l0,0l0,0l0,0h0.1l0,0l0,0l0.1,0.3l0,0l0,0l0,0l0.1,0.1l0,0l0,0l0.2,0.1v-0.1l0,0v0.2l0,0l0,0h0.1l0,0
	l-0.1-0.1l0,0l0,0l0,0l0,0v-0.1l0,0l0,0l0,0l0,0l0,0l0,0l0,0v0.1v0.1h0.3v-0.1l0,0v-0.1l0,0l0,0l0,0v-0.1c0,0,0,0,0,0.1v0.1l0.4-0.2
	l0,0l0,0l0,0l0,0l0,0l0,0v0.1l0,0h0.3l0,0l-0.1-0.1l0,0l0,0l0,0h0.1h0.3l0,0l0,0l0,0l0,0l0,0h0.2l0,0h0.3l0,0l0,0v-0.1l0,0l0,0V21
	l0,0c0-0.1,0-0.1,0-0.2l0,0l0,0v-0.1l-0.1-0.1l0,0l0.1,0.1l0,0l-0.1,0.1v0.1l0,0V21l0,0l0,0l0,0v0.1h0.1h0.1h0.1l0,0h-0.1v0.1v-0.1
	l0,0c0-0.1,0-0.1,0-0.2l0,0l0,0l0,0l0,0l0,0l0,0l0,0v-0.1l0.1,0.1l0,0l0,0v-0.1l0,0v0.1l0,0l0,0l0,0l0,0h0.1l0,0V21v0.1v0.1l0,0l0,0
	h0.1l0,0l0,0l0,0h0.1l0,0l0,0l0,0l-0.1-0.1h0.1V21l-0.1-0.1l0,0l0,0l0,0c0.1,0,0.1,0.1,0.2,0.1l0,0l0,0l0,0l0,0l0,0l0,0l0,0l0,0l0,0
	l0,0l0.1,0.2l0,0l0,0c0,0,0,0.1-0.1,0.1l0,0l0,0h0.1c0,0,0.1,0,0.1-0.1H12V21l0,0h0.1v-0.1l0,0v-0.1l0,0v0.1H12l0,0l0,0v0.3
	c0.2,0,0.3,0,0.5,0v-0.1l0,0l0,0l0,0l0,0l0,0l0,0l0,0l0,0l0,0l0,0l0,0l0,0l0,0l0,0l0,0l0,0l0,0v0.1l0,0l0,0l0,0l0,0l0,0l0,0h0.2l0,0
	l0,0c0.1,0,0.2,0,0.3-0.1l0,0H13l0,0h0.5V21l0,0l0.1-0.1l0,0l0,0h0.1v-0.1l-0.1-0.1l0,0v-0.1l0,0l0,0c0,0-0.1,0-0.1-0.1l0,0l0,0l0,0
	l0,0l-0.1-0.1l0,0l0,0h0.1l-0.1-0.1l0,0l0,0l0,0l0,0l0.1,0.1l0,0h0.1l0,0l0,0l0,0l0,0l0,0l0,0v-0.1l0,0c0,0,0,0.1-0.1,0.1l0,0h0.1
	l0,0l0,0l0,0l0,0h0.1l0,0l0,0v-0.1l0.1-0.1c0.1,0,0.1,0,0.2,0v-0.1l0,0l0,0l0,0l0,0l0,0l0,0l0,0l0.1-0.2l0,0l0.1-0.1v-0.1h0.1l0,0
	l0,0c0-0.2,0-0.3,0-0.5l0,0v-0.2l0.1-0.1V19c0-0.1-0.1-0.1-0.2-0.1v-0.1l0,0l0,0l0,0l0,0l-0.1-0.1l0,0l0.1-0.1l0,0l0,0l0,0h0.1l0,0
	v-0.2l0,0c0.2-0.2,0.5-0.5,0.6-0.7H15l0.1-0.2l0.4-0.2c-1.1-2.4-1.6-3.9-1.6-4.7c0-1.7,0.8-3.3,2.4-3.9c0.8-0.4,2-0.5,2.3-0.5
	c1.7,0,3.7,1.3,4.3,2.8l0,0c0.1,0,0.2-0.1,0.3,0v-0.1l0,0l0,0c0-0.4,0.1-0.6,0.2-1c0.1-0.1,0.2-0.3,0.3-0.4l0.3-0.2V9.1l0,0h0.1
	L24,9l0.2-0.2c0.1,0,0.3,0.1,0.4,0.1l0.1-0.1h0.1c0.1-0.1,0.2-0.2,0.3-0.2h0.1l0.2-0.2h0.1h0.1V8.2V8.1V8l0,0l0,0l0,0h-0.1l0,0l0,0
	l0,0l0,0l0,0V7.7l0,0V7.6l0,0V7.5l0,0V7.3l0,0l0,0l0,0l0,0L25.3,7.1L25.3,7.1L25.3,7.1z M8.2,18.8L8.2,18.8L8.2,18.8L8.2,18.8
	L8.2,18.8L8.2,18.8L8.2,18.8L8.2,18.8L8.2,18.8L8.2,18.8c-0.1-0.1,0-0.1,0-0.2h0.1l0,0l0,0l0,0h0.1l0,0l0,0l0,0l0,0l0,0l0,0
	C8.2,18.6,8.2,18.6,8.2,18.8L8.2,18.8L8.2,18.8z M8.2,19.1L8.2,19.1L8.2,19.1L8.2,19.1h0.2l0,0l0,0l0,0V19l0,0l0,0l0,0l0,0l0,0v0.1
	l0,0l0,0h0.1C8.3,19.1,8.2,19.1,8.2,19.1z M8.5,19.1L8.5,19.1L8.5,19.1L8.5,19.1L8.5,19.1L8.5,19.1z M8.4,19.2L8.4,19.2
	C8.5,19.2,8.5,19.2,8.4,19.2L8.4,19.2z M8.8,19.1L8.8,19.1L8.8,19.1L8.8,19.1L8.8,19.1H8.6l0,0l0,0l0,0l0,0l0,0l0,0l0,0l0,0l0,0l0,0
	l0,0l0,0H8.8L8.8,19.1L8.8,19.1L8.8,19.1z M10.1,21.2L10.1,21.2C10.1,21.1,10.1,21.2,10.1,21.2L10.1,21.2z M11.3,20.8L11.3,20.8
	L11.3,20.8L11.3,20.8L11.3,20.8z M11.4,20.8L11.4,20.8L11.4,20.8L11.4,20.8L11.4,20.8z"/>
<path class="st1" d="M18.5,11.9c-0.5,0-0.7,0.4-0.7,0.7c0,0.5,0.4,0.7,0.7,0.7c0.5,0,0.7-0.4,0.7-0.7C19.2,12.2,18.9,11.9,18.5,11.9
	z"/>
<g>
	<rect x="26.1" y="11.7" class="st2" width="27.8" height="5"/>
</g>
<g class="st3">
	<path class="st1" d="M27.8,15v1.4h-1.4v-4.5h1.9c0.5,0,1,0.1,1.3,0.4c0.3,0.3,0.4,0.6,0.4,1.1c0,0.3-0.1,0.5-0.2,0.8
		c-0.1,0.2-0.3,0.4-0.6,0.5C29,14.9,28.7,15,28.4,15H27.8z M28.6,13.5c0-0.3-0.1-0.4-0.4-0.4h-0.4v0.8h0.4
		C28.5,13.9,28.6,13.7,28.6,13.5z"/>
	<path class="st1" d="M31.7,11.9l0.9,3.1l0.9-3.1H35l-1.5,4.5h-1.8l-1.5-4.5H31.7z"/>
	<path class="st1" d="M38.8,11.9V13h-1.2v3.3h-1.4V13H35v-1.1H38.8z"/>
</g>
<g class="st3">
</g>
<g class="st3">
	<path class="st0" d="M42.6,14.6c0.4-0.5,0.7-1,0.7-1.4c0-0.3-0.1-0.5-0.2-0.7c-0.1-0.2-0.4-0.3-0.7-0.3c-0.3,0-0.6,0.1-0.7,0.3
		c-0.2,0.2-0.3,0.5-0.3,0.8h-0.4c0-0.5,0.2-0.9,0.4-1.1c0.3-0.3,0.6-0.4,1-0.4c0.4,0,0.7,0.1,1,0.3c0.2,0.2,0.4,0.5,0.4,0.9
		c0,0.3-0.1,0.7-0.3,1.1c-0.2,0.4-0.5,0.7-0.9,1c-0.3,0.3-0.7,0.6-1,0.8h2.4v0.4h-3V16C41.6,15.6,42.1,15.1,42.6,14.6z"/>
	<path class="st0" d="M44.5,14.1c0-0.7,0.1-1.3,0.3-1.7c0.2-0.4,0.6-0.6,1.2-0.6c0.6,0,1,0.2,1.2,0.6c0.2,0.4,0.3,0.9,0.3,1.7
		c0,0.7-0.1,1.3-0.3,1.7c-0.2,0.4-0.6,0.6-1.2,0.6c-0.6,0-1-0.2-1.2-0.6C44.6,15.4,44.5,14.9,44.5,14.1z M47.1,14.1
		c0-0.4,0-0.7-0.1-1c-0.1-0.3-0.2-0.5-0.3-0.6c-0.2-0.2-0.4-0.2-0.7-0.2c-0.3,0-0.5,0.1-0.7,0.2c-0.2,0.2-0.3,0.4-0.3,0.6
		c-0.1,0.3-0.1,0.6-0.1,1c0,0.4,0,0.7,0.1,1c0.1,0.3,0.2,0.5,0.3,0.6S45.7,16,46,16c0.3,0,0.5-0.1,0.7-0.2c0.2-0.2,0.3-0.4,0.3-0.6
		C47.1,14.9,47.1,14.5,47.1,14.1z"/>
	<path class="st0" d="M48,12.4v-0.4h1.1v4.4h-0.5v-4H48z"/>
	<path class="st0" d="M50.8,15.8c0.2,0.2,0.4,0.2,0.7,0.2c0.4,0,0.7-0.1,0.9-0.4c0.2-0.3,0.3-0.8,0.3-1.4c0-0.1,0-0.2,0-0.3
		c-0.1,0.3-0.2,0.5-0.4,0.7c-0.2,0.2-0.5,0.2-0.9,0.2c-0.4,0-0.8-0.1-1-0.4c-0.3-0.3-0.4-0.6-0.4-1.1c0-0.3,0.1-0.5,0.2-0.7
		c0.1-0.2,0.3-0.4,0.5-0.5c0.2-0.1,0.5-0.2,0.8-0.2c0.6,0,1.1,0.2,1.3,0.6s0.4,0.9,0.4,1.6c0,0.8-0.1,1.4-0.4,1.8
		c-0.2,0.4-0.7,0.6-1.2,0.6c-0.4,0-0.7-0.1-1-0.3c-0.2-0.2-0.4-0.5-0.4-0.9h0.4C50.6,15.4,50.7,15.7,50.8,15.8z M52.3,12.6
		c-0.2-0.2-0.5-0.3-0.9-0.3c-0.3,0-0.6,0.1-0.8,0.3c-0.2,0.2-0.3,0.5-0.3,0.8c0,0.4,0.1,0.7,0.3,0.9c0.2,0.2,0.5,0.3,0.8,0.3
		c0.2,0,0.4,0,0.6-0.1c0.2-0.1,0.3-0.2,0.4-0.4c0.1-0.2,0.2-0.4,0.2-0.6C52.6,13.1,52.5,12.8,52.3,12.6z"/>
</g>
</svg>
