<?xml version="1.0" encoding="utf-8"?>
<!-- Generator: Adobe Illustrator 22.1.0, SVG Export Plug-In . SVG Version: 6.00 Build 0)  -->
<svg version="1.1" id="Layer_1" xmlns="http://www.w3.org/2000/svg" xmlns:xlink="http://www.w3.org/1999/xlink" x="0px" y="0px"
	 viewBox="0 0 58 26" style="enable-background:new 0 0 58 26;" xml:space="preserve">
<style type="text/css">
	.st0{fill:#00A556;}
	.st1{fill:#FCFDFF;}
</style>
<g>
	<path class="st0" d="M17.3,21.3c0,0-0.9-1.7-1.7-3.5c-1.2-2.6-1.8-4.3-1.8-5.2c0-1.7,1-3.2,2.5-3.8c0.1-0.1,0.3-0.1,0.4-0.2
		c0.1,0,0.3-0.1,0.4-0.1c0.3-0.1,0.6-0.1,0.9-0.1c2.3,0,4.2,1.9,4.2,4.2c0,0.4-0.1,1-0.4,1.7c-0.1,0.2-0.2,0.5-0.3,0.8
		c-0.2,0.6-0.5,1.2-0.8,1.9c-0.1,0.1-0.1,0.3-0.2,0.4c-0.1,0.1-0.2,0.5-0.2,0.5c-0.8,1.7-1.6,3.2-1.7,3.5l-0.7,1.2L17.3,21.3z
		 M17.9,10.9c-0.8,0-1.5,0.7-1.5,1.5s0.7,1.5,1.5,1.5c0.8,0,1.5-0.7,1.5-1.5S18.8,10.9,17.9,10.9z"/>
</g>
<g>
	<path class="st1" d="M25.4,6.1L25.4,6.1L25.4,6.1L25.4,6.1l-0.1,0v0h0v0h0l0,0v0l-0.1-0.1v0l0,0h0v0h-0.6l0,0v0h0l0-0.1v0l0-0.1
		c-0.1-1-0.5-1.9-1.2-2.6h-0.6l-0.1,0.1v0h0l0,0v0h0V3h0v0l-0.1,0.1c-0.1,0-0.2,0-0.3,0l0,0H22v0H22v0h-0.1l0,0h-0.1v0l0,0h0l0,0v0
		l-0.1,0.1h0l0,0h0c0,0,0,0,0,0h0l-0.1,0.1v0l0,0l0,0v0h-0.1v0h0v0.1h0v0l-0.1,0.1v0l0,0h0v0h0V4l0,0h-0.1v0.1l0,0h0v0h-0.3l0,0h0v0
		h0v0l0,0h-0.2l0,0L20,4l-0.1-0.1h0c-0.7-0.4-1.4-0.5-2.2-0.4l-0.1,0h-0.2l-0.1,0c-0.4,0.1-0.8,0.2-1.2,0.2
		c-0.2,0.1-0.3,0.1-0.4,0.2h0L15.5,4l0,0.1h-0.1l-0.5,0.6l-0.4,0l0,0h-0.1l-0.1,0c-0.5,0-0.9-0.1-1.4-0.3c-0.1,0-0.1-0.1-0.1-0.2
		l-0.2-0.1h-0.2l0,0h0C12.2,4,12,3.8,11.8,3.6c-0.2,0-0.4-0.1-0.6-0.1l-0.9,0.6L9.9,4C9.8,4.1,9.7,4.2,9.6,4.3H9.3L9,4
		C8.8,3.5,8.4,3.1,7.9,2.9H7.8L7.7,2.9L7.6,2.9C7.3,2.8,7,2.7,6.7,2.5h0l0,0L6.4,2.4v0L6,2.5l0,0.1L5.8,2.7c-0.3,0-0.5,0-0.8,0
		L5,2.6L4.1,2.8L3.7,3.2l-0.2,0C3.5,3.9,3.4,4.4,3,4.8L2.4,5.3c0,0.4,0,0.8,0,1.2l0,0L2.4,6.6v0.2l0.1,0l0,0.1
		C2.4,7,2.3,7.1,2.3,7.1c0,0.1,0,0.1-0.1,0.2h0v0.1L2.1,7.6l0.5,0.6h0l0,0c0,0.2,0,0.3,0.1,0.4l0,0.1l0,0l0,0v0h0v0l0,0v0.1h0.1l0,0
		v0.2l0,0v0.1l0,0c0,0.1,0,0.1,0,0.2H2.6L2.5,9.7h0L2.4,9.8v0.1h0v0L2.3,10l0.1,0.2l0.1,0v0.1l0,0.1h0l0,0c0,0.1,0,0.1,0,0.2l0,0.1
		l-0.1,0v0.1L2.2,11h0l-0.1,0L1.8,11h0c0,0.1,0,0.2,0,0.3l-0.1,0.1h0v0l0,0h0v0.1c-0.1,0.1-0.2,0.2-0.2,0.3v0.1l0,0v0.2
		c0,0,0,0.1-0.1,0.1v0.1c0,0.1-0.1,0.1-0.1,0.2l-0.2,0.1l0,0H0.9l0,0H0.7l-0.1,0l0,0v0.3h0v0h0v0l0,0v0.1l0,0h0l0,0.1v0.4l0,0l0,0
		l0,0h0v0.1l0,0V14l0,0.1v0.1l0,0.1v0l0,0v0.2h0c0,0.1,0,0.3,0,0.4l0,0.1c0,0.1,0,0.1,0,0.2h0l0,0c-0.1,0.2-0.1,0.3,0,0.5h0v0.1
		l0.1,0c0,0.1,0,0.1,0,0.2H0.5c0,0.2,0,0.4,0.1,0.6l-0.1,0.1c0,0,0,0.1,0.1,0.1h0l-0.1,0.1h0l0,0v0.1l0,0v0.3h0.1v0.1h0v0l-0.1,0
		c0,0.1-0.1,0.2,0,0.2l0,0.1V18l0,0l0,0.2l0.1,0v0c0.1,0,0.3,0,0.4,0l0.1,0c0.3,0,0.5-0.1,0.8,0l0,0l0,0l0,0l0,0
		c0.6,0,1.2,0,1.9,0.1l0.1,0c0.1,0,0.2,0,0.3,0.1c0.1,0.1,0.1,0.1,0.2,0.2h0v0h0v0c0.1,0,0.1,0.1,0.2,0.2h0C5,19,5.2,19.3,5.4,19.6
		v0v-0.1c0,0,0.1,0,0.1,0v0h0v0l0,0l0,0v0c0,0.1,0.1,0.2,0.2,0.3l0,0v0L5.6,20l0,0h0l0,0v0l0.1,0.1h0c0,0,0.1,0.1,0.1,0.1h0.2l0,0h0
		v0l0,0l0.1,0l0,0v-0.1l0-0.1v0h0v0l0,0.1v0.1h0v0h0v0.1H6.3l-0.1,0h0l0,0h0c0,0,0,0,0,0c0,0,0,0,0,0H5.9c0,0.1,0.1,0.3,0.1,0.4
		l0.1,0.1l0,0h0.1l0,0h0v0h0l0,0H6.2v0l0,0l0,0v0l0,0v0c0,0-0.1,0-0.1,0c0,0,0,0,0,0v0c0,0.1,0.1,0.1,0.1,0.2v0.1l0,0v0.1l0,0v0
		l0.1,0.1v0l-0.1-0.1c0,0.1,0.1,0.2,0.2,0.3v0c0,0.1,0.1,0.3,0.2,0.4h0v0l0,0h0v0h0.1l0,0h0l0.1,0.1v0h0v0L7,22.4h0v0l0.2,0.1v-0.1
		h0v0.2h0l0,0h0.1l0,0l-0.1-0.1v0h0v0h0l0-0.1h0v0h0l0,0v0l0,0h0c0,0,0,0.1,0,0.1c0,0,0,0.1,0,0.1h0.3v-0.1l0,0v-0.1l0,0h0l0,0v-0.1
		c0,0,0,0,0,0.1v0.1L8,22.3v0l0,0v0h0v0h0l0,0.1v0h0.4l0,0c0,0-0.1-0.1-0.1-0.1h0v0h0l0.1,0h0.2l0,0l0,0v0l0,0v0h0.2v0h0.4v0h0
		l0-0.1v0l0,0v-0.1h0c0-0.1,0-0.1,0-0.2c0,0,0,0,0,0h0v-0.1L9,21.9h0l0.1,0.1v0L9,22.1l0,0.1v0l0,0.1v0h0l0,0l0,0.1h0.1l0.1,0h0.1
		l0,0l-0.1,0v-0.1l0-0.1h0c0-0.1,0-0.1,0-0.2c0,0,0,0,0,0c0,0,0,0,0,0v0h0v0h0l0,0v-0.1c0,0,0.1,0.1,0.1,0.1l0,0h0l0-0.1h0v0.1v0
		l0,0h0l0,0H9.4l0,0v0.1l0,0.1v0.1h0v0.1h0.1l0,0h0v0h0.1v0l0,0v0l-0.1-0.1h0.1V22l-0.1-0.1h0l0,0v0c0.1,0,0.1,0.1,0.2,0.1v0l0,0v0
		l0,0v0l0,0h0v0l0,0v0l-0.1,0.1v0h0c0,0,0,0.1-0.1,0.1h0v0h0.1c0,0,0.1,0,0.1-0.1h0.1v-0.2l0,0h0.1v-0.1l0,0v-0.1h0v0.1h-0.1l0,0h0
		v0.1c0.2,0,0.3,0,0.5,0v-0.1l0,0v0h0v0h0l0,0l0,0c0,0,0,0,0,0c0,0,0,0,0,0l0,0v0l0,0h0v0l0,0c0,0,0,0,0,0c0,0,0,0,0,0v0.1h0l0,0h0
		v0l0,0l0,0H11v0l0,0c0.1,0,0.2,0,0.3-0.1v0h0.1l0,0h0.7l0-0.1h0l0.1-0.1l0,0v0h0.1v-0.1l-0.1-0.1h0v-0.1l0,0l0,0c0,0-0.1,0-0.1-0.1
		v0h0l0,0h0L12,21.4l0,0v0l0.1,0c0,0-0.1-0.1-0.1-0.1v0l0,0h0v0l0.1,0.1v0h0.1l0,0l0,0h0v0h0l0,0v-0.1l0,0c0,0,0,0.1-0.1,0.1l0,0
		h0.1v0l0,0l0,0v0h0.1l0,0l0,0v-0.1l0.1-0.1c0.1,0,0.1,0,0.2,0v-0.1l0,0h0v0h0v0l0,0v0l0.1-0.2v0l0.1-0.1v-0.1h0.1v0h0
		c0-0.2,0-0.3,0-0.5l0,0v-0.2l0.1-0.1v-0.1c0-0.1-0.1-0.1-0.2-0.1v-0.1h0l0,0v0l0,0l-0.1-0.1v0c0,0,0.1-0.1,0.1-0.1v0l0,0h0l0.1,0
		l0,0v-0.1h0c0.2-0.3,0.5-0.5,0.7-0.8h0.1l0.1-0.2l0.2-0.1c-1.2-2.7-1.9-4.6-1.9-5.6c0-2,1.2-3.8,3-4.6c0.2-0.1,0.3-0.1,0.5-0.2
		c0.2-0.1,0.3-0.1,0.5-0.1c0.3-0.1,0.7-0.1,1-0.1c2,0,3.8,1.2,4.5,2.9l0,0c0.1,0,0.2-0.1,0.3,0l0-0.1h0l0,0c0-0.4,0.1-0.8,0.2-1.1
		c0.1-0.1,0.3-0.3,0.3-0.4l0.1-0.1V8.5l0,0l0.1,0l0.1-0.2L24,7.9C24.2,8,24.3,8,24.4,8l0.1-0.1h0.1c0.1-0.1,0.2-0.2,0.3-0.2H25
		l0.2-0.2h0.1l0.1,0V7.4l0-0.1V7.1h0l0,0v0h-0.1l0,0l0,0v0h0l0,0V6.7l0,0V6.6h0V6.5l0,0V6.3h0l0,0v0l0,0L25.4,6.1L25.4,6.1L25.4,6.1
		z M5.6,19.5L5.6,19.5L5.6,19.5L5.6,19.5L5.6,19.5L5.6,19.5L5.6,19.5L5.6,19.5L5.6,19.5l-0.1-0.1c0,0,0.1,0,0.1-0.1l0.1,0v0h0l0,0
		h0.1l0,0h0v0h0l0,0h0C5.6,19.4,5.6,19.4,5.6,19.5L5.6,19.5L5.6,19.5z M5.7,19.9L5.7,19.9L5.7,19.9L5.7,19.9l0.2,0c0,0,0,0,0,0
		c0,0,0,0,0,0l0,0v-0.1h0l0,0h0v0h0l0,0.1l0,0v0l0.1,0C5.9,19.9,5.8,19.9,5.7,19.9z M6,19.9L6,19.9C6.1,19.9,6,19.9,6,19.9L6,19.9
		C6,19.9,6,19.9,6,19.9L6,19.9z M6,19.9L6,19.9C6,20,6,20,6,19.9L6,19.9z M6.4,19.9L6.4,19.9L6.4,19.9H6.3l0,0H6.1l0,0l0,0h0v0h0
		c0,0,0,0,0,0c0,0,0,0,0,0c0,0,0,0,0,0c0,0,0,0,0,0v0l0,0h0L6.4,19.9C6.3,19.8,6.3,19.8,6.4,19.9C6.4,19.8,6.4,19.8,6.4,19.9
		L6.4,19.9z M7.8,22.3L7.8,22.3C7.8,22.2,7.8,22.2,7.8,22.3L7.8,22.3z M9.3,21.8L9.3,21.8L9.3,21.8L9.3,21.8L9.3,21.8z M9.4,21.9
		L9.4,21.9L9.4,21.9L9.4,21.9L9.4,21.9z"/>
</g>
<g>
	<path class="st1" d="M17.9,11.6c-0.5,0-0.9,0.4-0.9,0.9s0.4,0.9,0.9,0.9c0.5,0,0.9-0.4,0.9-0.9S18.4,11.6,17.9,11.6z"/>
</g>
<g>
	<path class="st1" d="M28.2,15.1v1.6h-1.6v-5.1h2.2c0.6,0,1.1,0.2,1.4,0.5c0.3,0.3,0.5,0.7,0.5,1.3c0,0.3-0.1,0.6-0.2,0.9
		c-0.1,0.3-0.4,0.5-0.7,0.6c-0.3,0.2-0.6,0.2-1.1,0.2H28.2z M29.2,13.4c0-0.3-0.2-0.5-0.5-0.5h-0.5v0.9h0.5
		C29,13.8,29.2,13.7,29.2,13.4z"/>
	<path class="st1" d="M32.8,11.6l1.1,3.5l1-3.5h1.7l-1.7,5.1h-2.1l-1.7-5.1H32.8z"/>
	<path class="st1" d="M41.1,11.6v1.3h-1.4v3.8h-1.6v-3.8h-1.3v-1.3H41.1z"/>
	<path class="st0" d="M45.3,14.7c0.5-0.6,0.8-1.1,0.8-1.6c0-0.3-0.1-0.6-0.2-0.8S45.4,12,45,12c-0.4,0-0.7,0.1-0.9,0.4
		c-0.2,0.2-0.3,0.6-0.3,1h-0.5c0-0.6,0.2-1,0.5-1.3c0.3-0.3,0.7-0.5,1.2-0.5c0.5,0,0.8,0.1,1.1,0.4c0.3,0.2,0.4,0.6,0.4,1.1
		c0,0.4-0.1,0.8-0.4,1.2c-0.3,0.4-0.6,0.8-1,1.2c-0.4,0.4-0.8,0.7-1.2,0.9h2.7v0.4h-3.5v-0.4C44.1,15.8,44.8,15.2,45.3,14.7z"/>
	<path class="st0" d="M47.6,14.2c0-0.8,0.1-1.5,0.4-1.9c0.3-0.5,0.7-0.7,1.4-0.7c0.7,0,1.1,0.2,1.4,0.7c0.3,0.5,0.4,1.1,0.4,1.9
		c0,0.8-0.1,1.5-0.4,1.9c-0.3,0.5-0.7,0.7-1.4,0.7c-0.7,0-1.1-0.2-1.4-0.7C47.7,15.6,47.6,15,47.6,14.2z M50.6,14.2
		c0-0.4,0-0.8-0.1-1.1c-0.1-0.3-0.2-0.5-0.4-0.7c-0.2-0.2-0.4-0.3-0.8-0.3c-0.3,0-0.6,0.1-0.8,0.3s-0.3,0.4-0.4,0.7
		c-0.1,0.3-0.1,0.7-0.1,1.1c0,0.4,0,0.8,0.1,1.1c0.1,0.3,0.2,0.5,0.4,0.7s0.4,0.3,0.8,0.3c0.3,0,0.6-0.1,0.8-0.3
		c0.2-0.2,0.3-0.4,0.4-0.7C50.6,15,50.6,14.6,50.6,14.2z"/>
	<path class="st0" d="M51.8,12.1v-0.5h1.3v5.1h-0.5v-4.6H51.8z"/>
	<path class="st0" d="M55.1,16.1c0.2,0.2,0.4,0.3,0.8,0.3c0.5,0,0.8-0.2,1-0.5c0.2-0.3,0.3-0.9,0.3-1.6c0-0.1,0-0.2,0-0.3
		c-0.1,0.3-0.2,0.6-0.5,0.8c-0.3,0.2-0.6,0.3-1,0.3c-0.5,0-0.9-0.2-1.2-0.5s-0.4-0.7-0.4-1.3c0-0.3,0.1-0.6,0.2-0.9
		c0.1-0.3,0.3-0.5,0.6-0.6c0.3-0.2,0.6-0.2,1-0.2c0.7,0,1.2,0.2,1.5,0.7c0.3,0.4,0.4,1.1,0.4,1.8c0,0.9-0.1,1.6-0.4,2
		c-0.3,0.5-0.7,0.7-1.4,0.7c-0.5,0-0.8-0.1-1.1-0.4c-0.3-0.3-0.4-0.6-0.5-1.1h0.5C54.8,15.7,54.9,15.9,55.1,16.1z M56.8,12.4
		c-0.2-0.3-0.6-0.4-1-0.4c-0.4,0-0.7,0.1-0.9,0.3c-0.2,0.2-0.3,0.5-0.3,0.9c0,0.4,0.1,0.8,0.3,1c0.2,0.2,0.5,0.3,0.9,0.3
		c0.2,0,0.4,0,0.6-0.1c0.2-0.1,0.4-0.2,0.5-0.4c0.1-0.2,0.2-0.4,0.2-0.7C57.2,13,57.1,12.7,56.8,12.4z"/>
</g>
</svg>
