<?xml version="1.0" encoding="utf-8"?>
<!-- Generator: Adobe Illustrator 22.1.0, SVG Export Plug-In . SVG Version: 6.00 Build 0)  -->
<svg version="1.1" id="Layer_1" xmlns="http://www.w3.org/2000/svg" xmlns:xlink="http://www.w3.org/1999/xlink" x="0px" y="0px"
	 viewBox="0 0 32 32" style="enable-background:new 0 0 32 32;" xml:space="preserve">
<style type="text/css">
	.st0{fill:none;stroke:#07A658;stroke-width:3;stroke-linecap:round;stroke-miterlimit:10;}
	.st1{fill:#07A658;}
</style>
<g>
	<circle class="st0" cx="16" cy="16" r="14.5"/>
	<path id="path22" inkscape:connector-curvature="0" class="st1" d="M23.1,11.6c-0.5,0.2-1.1,0.4-1.7,0.5c0.6-0.4,1.1-0.9,1.3-1.6
		c-0.6,0.3-1.2,0.6-1.8,0.7c-0.5-0.6-1.3-0.9-2.1-0.9c-1.6,0-2.9,1.3-2.9,2.9c0,0.2,0,0.5,0.1,0.7c-2.4-0.1-4.6-1.3-6-3
		c-0.3,0.4-0.4,0.9-0.4,1.5c0,1,0.5,1.9,1.3,2.4c-0.5,0-0.9-0.1-1.3-0.4c0,0,0,0,0,0c0,1.4,1,2.6,2.3,2.9c-0.2,0.1-0.5,0.1-0.8,0.1
		c-0.2,0-0.4,0-0.5-0.1c0.4,1.2,1.4,2,2.7,2c-1,0.8-2.3,1.2-3.6,1.2c-0.2,0-0.5,0-0.7,0c1.3,0.8,2.8,1.3,4.5,1.3
		c5.4,0,8.3-4.4,8.3-8.3c0-0.1,0-0.3,0-0.4C22.2,12.7,22.7,12.2,23.1,11.6"/>
</g>
</svg>
