<?xml version="1.0" encoding="utf-8"?>
<!-- Generator: Adobe Illustrator 22.1.0, SVG Export Plug-In . SVG Version: 6.00 Build 0)  -->
<svg version="1.1" id="Layer_1" xmlns="http://www.w3.org/2000/svg" xmlns:xlink="http://www.w3.org/1999/xlink" x="0px" y="0px"
	 viewBox="0 0 32 32" style="enable-background:new 0 0 32 32;" xml:space="preserve">
<style type="text/css">
	.st0{fill:none;stroke:#07A658;stroke-width:3;stroke-linecap:round;stroke-miterlimit:10;}
	.st1{fill:#07A658;}
</style>
<g>
	<circle class="st0" cx="16" cy="16" r="14.5"/>
	<path id="rect3687" inkscape:connector-curvature="0" class="st1" d="M12.3,8.4C9.9,8.4,8,10.3,8,12.7v6.2c0,2.4,1.9,4.3,4.3,4.3
		h6.3c2.4,0,4.3-1.9,4.3-4.3v-6.2c0-2.4-1.9-4.3-4.3-4.3H12.3z M12.3,9.6h6.3c1.7,0,3,1.3,3,3v6.2c0,1.7-1.3,3-3,3h-6.3
		c-1.7,0-3-1.3-3-3v-6.2C9.2,11,10.6,9.6,12.3,9.6z M19.4,10.9c-0.5,0-0.9,0.4-0.9,0.9c0,0.5,0.4,0.9,0.9,0.9s0.9-0.4,0.9-0.9
		C20.3,11.3,19.9,10.9,19.4,10.9z M15.4,12c-2.1,0-3.8,1.7-3.8,3.8c0,2.1,1.7,3.8,3.8,3.8s3.8-1.7,3.8-3.8S17.5,12,15.4,12z
		 M15.4,13.3c1.4,0,2.6,1.1,2.6,2.6c0,1.4-1.1,2.6-2.6,2.6c-1.4,0-2.6-1.1-2.6-2.6C12.9,14.4,14,13.3,15.4,13.3z"/>
</g>
</svg>
